<mxfile host="app.diagrams.net" agent="Mozilla/5.0 (Windows NT 10.0; Win64; x64) AppleWebKit/537.36 (KHTML, like Gecko) Chrome/136.0.0.0 Safari/537.36" version="27.1.1">
  <diagram name="Page-1" id="_iKJrTtb19u74qbGRDB0">
    <mxGraphModel dx="2593" dy="1413" grid="0" gridSize="10" guides="1" tooltips="1" connect="1" arrows="1" fold="1" page="0" pageScale="1" pageWidth="827" pageHeight="1169" math="0" shadow="0">
      <root>
        <mxCell id="0" />
        <mxCell id="1" parent="0" />
        <mxCell id="bo-qxafegFHMEFzdp9d2-1" value="Administrator" style="rounded=0;whiteSpace=wrap;html=1;" vertex="1" parent="1">
          <mxGeometry x="730" y="50" width="210" height="40" as="geometry" />
        </mxCell>
        <mxCell id="bo-qxafegFHMEFzdp9d2-2" value="" style="rounded=0;whiteSpace=wrap;html=1;" vertex="1" parent="1">
          <mxGeometry x="730" y="90" width="210" height="1340" as="geometry" />
        </mxCell>
        <mxCell id="JvxIvFLI5-YWumKYgX6Y-74" value="" style="rounded=0;whiteSpace=wrap;html=1;" parent="1" vertex="1">
          <mxGeometry x="80" y="50" width="650" height="1380" as="geometry" />
        </mxCell>
        <mxCell id="JvxIvFLI5-YWumKYgX6Y-6" style="edgeStyle=orthogonalEdgeStyle;rounded=0;orthogonalLoop=1;jettySize=auto;html=1;entryX=0.5;entryY=0;entryDx=0;entryDy=0;" parent="1" source="JvxIvFLI5-YWumKYgX6Y-1" target="JvxIvFLI5-YWumKYgX6Y-2" edge="1">
          <mxGeometry relative="1" as="geometry" />
        </mxCell>
        <mxCell id="JvxIvFLI5-YWumKYgX6Y-1" value="" style="ellipse;fillColor=strokeColor;html=1;" parent="1" vertex="1">
          <mxGeometry x="170" y="100" width="30" height="30" as="geometry" />
        </mxCell>
        <mxCell id="JvxIvFLI5-YWumKYgX6Y-7" style="edgeStyle=orthogonalEdgeStyle;rounded=0;orthogonalLoop=1;jettySize=auto;html=1;entryX=0.5;entryY=0;entryDx=0;entryDy=0;" parent="1" source="JvxIvFLI5-YWumKYgX6Y-2" target="JvxIvFLI5-YWumKYgX6Y-4" edge="1">
          <mxGeometry relative="1" as="geometry" />
        </mxCell>
        <mxCell id="JvxIvFLI5-YWumKYgX6Y-2" value="Logs In" style="rounded=0;whiteSpace=wrap;html=1;" parent="1" vertex="1">
          <mxGeometry x="140" y="158" width="90" height="50" as="geometry" />
        </mxCell>
        <mxCell id="JvxIvFLI5-YWumKYgX6Y-11" value="" style="edgeStyle=orthogonalEdgeStyle;rounded=0;orthogonalLoop=1;jettySize=auto;html=1;" parent="1" source="JvxIvFLI5-YWumKYgX6Y-4" target="JvxIvFLI5-YWumKYgX6Y-10" edge="1">
          <mxGeometry relative="1" as="geometry" />
        </mxCell>
        <mxCell id="JvxIvFLI5-YWumKYgX6Y-4" value="Request Appointment" style="rounded=0;whiteSpace=wrap;html=1;" parent="1" vertex="1">
          <mxGeometry x="140" y="237" width="90" height="50" as="geometry" />
        </mxCell>
        <mxCell id="JvxIvFLI5-YWumKYgX6Y-8" value="Patient" style="text;strokeColor=none;align=center;fillColor=none;html=1;verticalAlign=middle;whiteSpace=wrap;rounded=0;" parent="1" vertex="1">
          <mxGeometry x="160" y="60" width="60" height="30" as="geometry" />
        </mxCell>
        <mxCell id="JvxIvFLI5-YWumKYgX6Y-9" value="System" style="text;strokeColor=none;align=center;fillColor=none;html=1;verticalAlign=middle;whiteSpace=wrap;rounded=0;" parent="1" vertex="1">
          <mxGeometry x="360" y="60" width="60" height="30" as="geometry" />
        </mxCell>
        <mxCell id="JvxIvFLI5-YWumKYgX6Y-13" value="" style="edgeStyle=orthogonalEdgeStyle;rounded=0;orthogonalLoop=1;jettySize=auto;html=1;" parent="1" source="JvxIvFLI5-YWumKYgX6Y-10" target="JvxIvFLI5-YWumKYgX6Y-12" edge="1">
          <mxGeometry relative="1" as="geometry" />
        </mxCell>
        <mxCell id="JvxIvFLI5-YWumKYgX6Y-10" value="Check Clinician Availability" style="rounded=0;whiteSpace=wrap;html=1;" parent="1" vertex="1">
          <mxGeometry x="345" y="237" width="90" height="50" as="geometry" />
        </mxCell>
        <mxCell id="JvxIvFLI5-YWumKYgX6Y-18" value="" style="edgeStyle=orthogonalEdgeStyle;rounded=0;orthogonalLoop=1;jettySize=auto;html=1;" parent="1" source="JvxIvFLI5-YWumKYgX6Y-12" target="JvxIvFLI5-YWumKYgX6Y-17" edge="1">
          <mxGeometry relative="1" as="geometry" />
        </mxCell>
        <mxCell id="JvxIvFLI5-YWumKYgX6Y-20" value="" style="edgeStyle=orthogonalEdgeStyle;rounded=0;orthogonalLoop=1;jettySize=auto;html=1;" parent="1" source="JvxIvFLI5-YWumKYgX6Y-12" target="JvxIvFLI5-YWumKYgX6Y-19" edge="1">
          <mxGeometry relative="1" as="geometry" />
        </mxCell>
        <mxCell id="JvxIvFLI5-YWumKYgX6Y-12" value="Slot Available?" style="rhombus;whiteSpace=wrap;html=1;" parent="1" vertex="1">
          <mxGeometry x="350" y="313" width="80" height="80" as="geometry" />
        </mxCell>
        <mxCell id="JvxIvFLI5-YWumKYgX6Y-30" value="" style="edgeStyle=orthogonalEdgeStyle;rounded=0;orthogonalLoop=1;jettySize=auto;html=1;" parent="1" source="JvxIvFLI5-YWumKYgX6Y-17" target="JvxIvFLI5-YWumKYgX6Y-29" edge="1">
          <mxGeometry relative="1" as="geometry" />
        </mxCell>
        <mxCell id="JvxIvFLI5-YWumKYgX6Y-17" value="Allocate Slot" style="rounded=0;whiteSpace=wrap;html=1;" parent="1" vertex="1">
          <mxGeometry x="345" y="433" width="90" height="50" as="geometry" />
        </mxCell>
        <mxCell id="JvxIvFLI5-YWumKYgX6Y-21" value="" style="edgeStyle=orthogonalEdgeStyle;rounded=0;orthogonalLoop=1;jettySize=auto;html=1;" parent="1" source="JvxIvFLI5-YWumKYgX6Y-19" target="JvxIvFLI5-YWumKYgX6Y-4" edge="1">
          <mxGeometry relative="1" as="geometry" />
        </mxCell>
        <mxCell id="JvxIvFLI5-YWumKYgX6Y-19" value="Notify Unavailability" style="rounded=0;whiteSpace=wrap;html=1;" parent="1" vertex="1">
          <mxGeometry x="140" y="328" width="90" height="50" as="geometry" />
        </mxCell>
        <mxCell id="JvxIvFLI5-YWumKYgX6Y-23" value="Yes" style="text;strokeColor=none;align=center;fillColor=none;html=1;verticalAlign=middle;whiteSpace=wrap;rounded=0;" parent="1" vertex="1">
          <mxGeometry x="384" y="390" width="60" height="30" as="geometry" />
        </mxCell>
        <mxCell id="JvxIvFLI5-YWumKYgX6Y-24" value="No" style="text;strokeColor=none;align=center;fillColor=none;html=1;verticalAlign=middle;whiteSpace=wrap;rounded=0;" parent="1" vertex="1">
          <mxGeometry x="280" y="310" width="60" height="30" as="geometry" />
        </mxCell>
        <mxCell id="JvxIvFLI5-YWumKYgX6Y-32" value="" style="edgeStyle=orthogonalEdgeStyle;rounded=0;orthogonalLoop=1;jettySize=auto;html=1;" parent="1" source="JvxIvFLI5-YWumKYgX6Y-29" target="JvxIvFLI5-YWumKYgX6Y-31" edge="1">
          <mxGeometry relative="1" as="geometry" />
        </mxCell>
        <mxCell id="JvxIvFLI5-YWumKYgX6Y-29" value="Send Confirmation" style="rounded=0;whiteSpace=wrap;html=1;" parent="1" vertex="1">
          <mxGeometry x="345" y="525" width="90" height="50" as="geometry" />
        </mxCell>
        <mxCell id="JvxIvFLI5-YWumKYgX6Y-38" value="" style="edgeStyle=orthogonalEdgeStyle;rounded=0;orthogonalLoop=1;jettySize=auto;html=1;" parent="1" source="JvxIvFLI5-YWumKYgX6Y-31" target="JvxIvFLI5-YWumKYgX6Y-33" edge="1">
          <mxGeometry relative="1" as="geometry" />
        </mxCell>
        <mxCell id="JvxIvFLI5-YWumKYgX6Y-31" value="Receive Confirmation" style="rounded=0;whiteSpace=wrap;html=1;" parent="1" vertex="1">
          <mxGeometry x="140" y="525" width="90" height="50" as="geometry" />
        </mxCell>
        <mxCell id="JvxIvFLI5-YWumKYgX6Y-36" style="edgeStyle=orthogonalEdgeStyle;rounded=0;orthogonalLoop=1;jettySize=auto;html=1;entryX=0;entryY=0.5;entryDx=0;entryDy=0;" parent="1" source="JvxIvFLI5-YWumKYgX6Y-33" target="JvxIvFLI5-YWumKYgX6Y-35" edge="1">
          <mxGeometry relative="1" as="geometry" />
        </mxCell>
        <mxCell id="JvxIvFLI5-YWumKYgX6Y-37" value="" style="edgeStyle=orthogonalEdgeStyle;rounded=0;orthogonalLoop=1;jettySize=auto;html=1;" parent="1" source="JvxIvFLI5-YWumKYgX6Y-33" target="JvxIvFLI5-YWumKYgX6Y-34" edge="1">
          <mxGeometry relative="1" as="geometry" />
        </mxCell>
        <mxCell id="JvxIvFLI5-YWumKYgX6Y-33" value="Arrive on time?" style="rhombus;whiteSpace=wrap;html=1;" parent="1" vertex="1">
          <mxGeometry x="145" y="615" width="80" height="80" as="geometry" />
        </mxCell>
        <mxCell id="JvxIvFLI5-YWumKYgX6Y-44" value="" style="edgeStyle=orthogonalEdgeStyle;rounded=0;orthogonalLoop=1;jettySize=auto;html=1;" parent="1" source="JvxIvFLI5-YWumKYgX6Y-34" target="JvxIvFLI5-YWumKYgX6Y-43" edge="1">
          <mxGeometry relative="1" as="geometry" />
        </mxCell>
        <mxCell id="JvxIvFLI5-YWumKYgX6Y-34" value="Check In" style="rounded=0;whiteSpace=wrap;html=1;" parent="1" vertex="1">
          <mxGeometry x="140" y="738" width="90" height="50" as="geometry" />
        </mxCell>
        <mxCell id="JvxIvFLI5-YWumKYgX6Y-35" value="Release Slot" style="rounded=0;whiteSpace=wrap;html=1;" parent="1" vertex="1">
          <mxGeometry x="345" y="630" width="90" height="50" as="geometry" />
        </mxCell>
        <mxCell id="JvxIvFLI5-YWumKYgX6Y-39" value="Yes" style="text;strokeColor=none;align=center;fillColor=none;html=1;verticalAlign=middle;whiteSpace=wrap;rounded=0;" parent="1" vertex="1">
          <mxGeometry x="175" y="695" width="60" height="30" as="geometry" />
        </mxCell>
        <mxCell id="JvxIvFLI5-YWumKYgX6Y-41" value="No" style="text;strokeColor=none;align=center;fillColor=none;html=1;verticalAlign=middle;whiteSpace=wrap;rounded=0;" parent="1" vertex="1">
          <mxGeometry x="235" y="625" width="60" height="30" as="geometry" />
        </mxCell>
        <mxCell id="JvxIvFLI5-YWumKYgX6Y-48" style="edgeStyle=orthogonalEdgeStyle;rounded=0;orthogonalLoop=1;jettySize=auto;html=1;entryX=0;entryY=0.5;entryDx=0;entryDy=0;" parent="1" source="JvxIvFLI5-YWumKYgX6Y-43" target="JvxIvFLI5-YWumKYgX6Y-47" edge="1">
          <mxGeometry relative="1" as="geometry" />
        </mxCell>
        <mxCell id="JvxIvFLI5-YWumKYgX6Y-43" value="Update Queue" style="rounded=0;whiteSpace=wrap;html=1;" parent="1" vertex="1">
          <mxGeometry x="345" y="738" width="90" height="50" as="geometry" />
        </mxCell>
        <mxCell id="JvxIvFLI5-YWumKYgX6Y-82" style="edgeStyle=orthogonalEdgeStyle;rounded=0;orthogonalLoop=1;jettySize=auto;html=1;" parent="1" source="JvxIvFLI5-YWumKYgX6Y-45" edge="1">
          <mxGeometry relative="1" as="geometry">
            <mxPoint x="500" y="760" as="targetPoint" />
          </mxGeometry>
        </mxCell>
        <mxCell id="JvxIvFLI5-YWumKYgX6Y-84" style="edgeStyle=orthogonalEdgeStyle;rounded=0;orthogonalLoop=1;jettySize=auto;html=1;" parent="1" source="JvxIvFLI5-YWumKYgX6Y-45" edge="1">
          <mxGeometry relative="1" as="geometry">
            <mxPoint x="300" y="760" as="targetPoint" />
          </mxGeometry>
        </mxCell>
        <mxCell id="JvxIvFLI5-YWumKYgX6Y-45" value="Emergency?" style="rhombus;whiteSpace=wrap;html=1;" parent="1" vertex="1">
          <mxGeometry x="350" y="835" width="80" height="80" as="geometry" />
        </mxCell>
        <mxCell id="JvxIvFLI5-YWumKYgX6Y-87" style="edgeStyle=orthogonalEdgeStyle;rounded=0;orthogonalLoop=1;jettySize=auto;html=1;entryX=1;entryY=0.5;entryDx=0;entryDy=0;" parent="1" source="JvxIvFLI5-YWumKYgX6Y-47" target="JvxIvFLI5-YWumKYgX6Y-50" edge="1">
          <mxGeometry relative="1" as="geometry">
            <Array as="points">
              <mxPoint x="615" y="971" />
            </Array>
          </mxGeometry>
        </mxCell>
        <mxCell id="JvxIvFLI5-YWumKYgX6Y-47" value="Update Availability Status" style="rounded=0;whiteSpace=wrap;html=1;" parent="1" vertex="1">
          <mxGeometry x="570" y="738" width="90" height="50" as="geometry" />
        </mxCell>
        <mxCell id="JvxIvFLI5-YWumKYgX6Y-54" style="edgeStyle=orthogonalEdgeStyle;rounded=0;orthogonalLoop=1;jettySize=auto;html=1;entryX=1;entryY=0.5;entryDx=0;entryDy=0;" parent="1" source="JvxIvFLI5-YWumKYgX6Y-50" target="JvxIvFLI5-YWumKYgX6Y-51" edge="1">
          <mxGeometry relative="1" as="geometry" />
        </mxCell>
        <mxCell id="JvxIvFLI5-YWumKYgX6Y-50" value="Notify Next Patient" style="rounded=0;whiteSpace=wrap;html=1;" parent="1" vertex="1">
          <mxGeometry x="340" y="946" width="90" height="50" as="geometry" />
        </mxCell>
        <mxCell id="JvxIvFLI5-YWumKYgX6Y-79" style="edgeStyle=orthogonalEdgeStyle;rounded=0;orthogonalLoop=1;jettySize=auto;html=1;entryX=0;entryY=0.5;entryDx=0;entryDy=0;" parent="1" source="JvxIvFLI5-YWumKYgX6Y-51" target="JvxIvFLI5-YWumKYgX6Y-56" edge="1">
          <mxGeometry relative="1" as="geometry">
            <Array as="points">
              <mxPoint x="185" y="1045" />
            </Array>
          </mxGeometry>
        </mxCell>
        <mxCell id="JvxIvFLI5-YWumKYgX6Y-51" value="Enter Consultation" style="rounded=0;whiteSpace=wrap;html=1;" parent="1" vertex="1">
          <mxGeometry x="140" y="946" width="90" height="50" as="geometry" />
        </mxCell>
        <mxCell id="JvxIvFLI5-YWumKYgX6Y-80" style="edgeStyle=orthogonalEdgeStyle;rounded=0;orthogonalLoop=1;jettySize=auto;html=1;entryX=1;entryY=0.5;entryDx=0;entryDy=0;" parent="1" source="JvxIvFLI5-YWumKYgX6Y-56" target="JvxIvFLI5-YWumKYgX6Y-61" edge="1">
          <mxGeometry relative="1" as="geometry">
            <Array as="points">
              <mxPoint x="605" y="1144" />
            </Array>
          </mxGeometry>
        </mxCell>
        <mxCell id="JvxIvFLI5-YWumKYgX6Y-56" value="Log Consultation Outcome" style="rounded=0;whiteSpace=wrap;html=1;" parent="1" vertex="1">
          <mxGeometry x="560" y="1020" width="90" height="50" as="geometry" />
        </mxCell>
        <mxCell id="JvxIvFLI5-YWumKYgX6Y-65" value="" style="edgeStyle=orthogonalEdgeStyle;rounded=0;orthogonalLoop=1;jettySize=auto;html=1;" parent="1" source="JvxIvFLI5-YWumKYgX6Y-61" target="JvxIvFLI5-YWumKYgX6Y-63" edge="1">
          <mxGeometry relative="1" as="geometry" />
        </mxCell>
        <mxCell id="JvxIvFLI5-YWumKYgX6Y-61" value="Push Visit Data to EMR" style="rounded=0;whiteSpace=wrap;html=1;" parent="1" vertex="1">
          <mxGeometry x="345" y="1119" width="90" height="50" as="geometry" />
        </mxCell>
        <mxCell id="JvxIvFLI5-YWumKYgX6Y-70" style="edgeStyle=orthogonalEdgeStyle;rounded=0;orthogonalLoop=1;jettySize=auto;html=1;entryX=1;entryY=0.5;entryDx=0;entryDy=0;" parent="1" source="JvxIvFLI5-YWumKYgX6Y-63" target="JvxIvFLI5-YWumKYgX6Y-66" edge="1">
          <mxGeometry relative="1" as="geometry" />
        </mxCell>
        <mxCell id="JvxIvFLI5-YWumKYgX6Y-63" value="Prompt for Feedback" style="rounded=0;whiteSpace=wrap;html=1;" parent="1" vertex="1">
          <mxGeometry x="345" y="1210" width="90" height="50" as="geometry" />
        </mxCell>
        <mxCell id="JvxIvFLI5-YWumKYgX6Y-81" style="edgeStyle=orthogonalEdgeStyle;rounded=0;orthogonalLoop=1;jettySize=auto;html=1;entryX=0;entryY=0.5;entryDx=0;entryDy=0;" parent="1" source="JvxIvFLI5-YWumKYgX6Y-66" target="JvxIvFLI5-YWumKYgX6Y-68" edge="1">
          <mxGeometry relative="1" as="geometry">
            <Array as="points">
              <mxPoint x="190" y="1325" />
            </Array>
          </mxGeometry>
        </mxCell>
        <mxCell id="JvxIvFLI5-YWumKYgX6Y-66" value="Submit Feedback" style="rounded=0;whiteSpace=wrap;html=1;" parent="1" vertex="1">
          <mxGeometry x="145" y="1210" width="90" height="50" as="geometry" />
        </mxCell>
        <mxCell id="JvxIvFLI5-YWumKYgX6Y-72" value="" style="edgeStyle=orthogonalEdgeStyle;rounded=0;orthogonalLoop=1;jettySize=auto;html=1;" parent="1" source="JvxIvFLI5-YWumKYgX6Y-68" target="JvxIvFLI5-YWumKYgX6Y-71" edge="1">
          <mxGeometry relative="1" as="geometry" />
        </mxCell>
        <mxCell id="JvxIvFLI5-YWumKYgX6Y-68" value="Store Feedback" style="rounded=0;whiteSpace=wrap;html=1;" parent="1" vertex="1">
          <mxGeometry x="345" y="1300" width="90" height="50" as="geometry" />
        </mxCell>
        <mxCell id="JvxIvFLI5-YWumKYgX6Y-71" value="" style="ellipse;html=1;shape=endState;fillColor=strokeColor;" parent="1" vertex="1">
          <mxGeometry x="375" y="1391" width="30" height="30" as="geometry" />
        </mxCell>
        <mxCell id="JvxIvFLI5-YWumKYgX6Y-73" value="Clinician" style="text;strokeColor=none;align=center;fillColor=none;html=1;verticalAlign=middle;whiteSpace=wrap;rounded=0;" parent="1" vertex="1">
          <mxGeometry x="595" y="60" width="60" height="30" as="geometry" />
        </mxCell>
        <mxCell id="JvxIvFLI5-YWumKYgX6Y-75" value="" style="endArrow=none;html=1;rounded=0;entryX=0.998;entryY=0.044;entryDx=0;entryDy=0;entryPerimeter=0;exitX=0;exitY=0.044;exitDx=0;exitDy=0;exitPerimeter=0;" parent="1" edge="1">
          <mxGeometry width="50" height="50" relative="1" as="geometry">
            <mxPoint x="80" y="89.51999999999998" as="sourcePoint" />
            <mxPoint x="728.6999999999998" y="89.51999999999998" as="targetPoint" />
          </mxGeometry>
        </mxCell>
        <mxCell id="JvxIvFLI5-YWumKYgX6Y-77" value="" style="endArrow=none;html=1;rounded=0;entryX=0.303;entryY=0.001;entryDx=0;entryDy=0;entryPerimeter=0;exitX=0.315;exitY=1.001;exitDx=0;exitDy=0;exitPerimeter=0;" parent="1" source="JvxIvFLI5-YWumKYgX6Y-74" target="JvxIvFLI5-YWumKYgX6Y-74" edge="1">
          <mxGeometry width="50" height="50" relative="1" as="geometry">
            <mxPoint x="280" y="180" as="sourcePoint" />
            <mxPoint x="330" y="130" as="targetPoint" />
          </mxGeometry>
        </mxCell>
        <mxCell id="JvxIvFLI5-YWumKYgX6Y-78" value="" style="endArrow=none;html=1;rounded=0;entryX=0.686;entryY=0.001;entryDx=0;entryDy=0;entryPerimeter=0;exitX=0.671;exitY=0.998;exitDx=0;exitDy=0;exitPerimeter=0;" parent="1" source="JvxIvFLI5-YWumKYgX6Y-74" target="JvxIvFLI5-YWumKYgX6Y-74" edge="1">
          <mxGeometry width="50" height="50" relative="1" as="geometry">
            <mxPoint x="390" y="470" as="sourcePoint" />
            <mxPoint x="440" y="420" as="targetPoint" />
          </mxGeometry>
        </mxCell>
        <mxCell id="JvxIvFLI5-YWumKYgX6Y-85" value="Yes" style="text;strokeColor=none;align=center;fillColor=none;html=1;verticalAlign=middle;whiteSpace=wrap;rounded=0;" parent="1" vertex="1">
          <mxGeometry x="295" y="880" width="60" height="30" as="geometry" />
        </mxCell>
        <mxCell id="JvxIvFLI5-YWumKYgX6Y-86" value="No" style="text;strokeColor=none;align=center;fillColor=none;html=1;verticalAlign=middle;whiteSpace=wrap;rounded=0;" parent="1" vertex="1">
          <mxGeometry x="454" y="805" width="60" height="30" as="geometry" />
        </mxCell>
        <mxCell id="bo-qxafegFHMEFzdp9d2-9" value="" style="edgeStyle=orthogonalEdgeStyle;rounded=0;orthogonalLoop=1;jettySize=auto;html=1;" edge="1" parent="1" source="bo-qxafegFHMEFzdp9d2-3" target="bo-qxafegFHMEFzdp9d2-6">
          <mxGeometry relative="1" as="geometry" />
        </mxCell>
        <mxCell id="bo-qxafegFHMEFzdp9d2-3" value="View Dashboard" style="rounded=0;whiteSpace=wrap;html=1;" vertex="1" parent="1">
          <mxGeometry x="790" y="183" width="90" height="50" as="geometry" />
        </mxCell>
        <mxCell id="bo-qxafegFHMEFzdp9d2-10" value="" style="edgeStyle=orthogonalEdgeStyle;rounded=0;orthogonalLoop=1;jettySize=auto;html=1;" edge="1" parent="1" source="bo-qxafegFHMEFzdp9d2-6" target="bo-qxafegFHMEFzdp9d2-7">
          <mxGeometry relative="1" as="geometry" />
        </mxCell>
        <mxCell id="bo-qxafegFHMEFzdp9d2-6" value="Manage Records" style="rounded=0;whiteSpace=wrap;html=1;" vertex="1" parent="1">
          <mxGeometry x="790" y="271" width="90" height="50" as="geometry" />
        </mxCell>
        <mxCell id="bo-qxafegFHMEFzdp9d2-11" value="" style="edgeStyle=orthogonalEdgeStyle;rounded=0;orthogonalLoop=1;jettySize=auto;html=1;" edge="1" parent="1" source="bo-qxafegFHMEFzdp9d2-7" target="bo-qxafegFHMEFzdp9d2-8">
          <mxGeometry relative="1" as="geometry" />
        </mxCell>
        <mxCell id="bo-qxafegFHMEFzdp9d2-7" value="Configure Slots" style="rounded=0;whiteSpace=wrap;html=1;" vertex="1" parent="1">
          <mxGeometry x="790" y="391" width="90" height="50" as="geometry" />
        </mxCell>
        <mxCell id="bo-qxafegFHMEFzdp9d2-8" value="Generate Reports" style="rounded=0;whiteSpace=wrap;html=1;" vertex="1" parent="1">
          <mxGeometry x="790" y="518" width="90" height="50" as="geometry" />
        </mxCell>
        <mxCell id="bo-qxafegFHMEFzdp9d2-15" value="" style="endArrow=none;html=1;rounded=0;exitX=0.5;exitY=1;exitDx=0;exitDy=0;startFill=0;" edge="1" parent="1" source="bo-qxafegFHMEFzdp9d2-8">
          <mxGeometry width="50" height="50" relative="1" as="geometry">
            <mxPoint x="830" y="1020" as="sourcePoint" />
            <mxPoint x="830" y="1360" as="targetPoint" />
          </mxGeometry>
        </mxCell>
        <mxCell id="bo-qxafegFHMEFzdp9d2-16" value="" style="endArrow=classic;html=1;rounded=0;" edge="1" parent="1">
          <mxGeometry width="50" height="50" relative="1" as="geometry">
            <mxPoint x="830" y="1360" as="sourcePoint" />
            <mxPoint x="390" y="1360" as="targetPoint" />
          </mxGeometry>
        </mxCell>
        <mxCell id="bo-qxafegFHMEFzdp9d2-24" value="" style="edgeStyle=orthogonalEdgeStyle;rounded=0;orthogonalLoop=1;jettySize=auto;html=1;" edge="1" parent="1" source="bo-qxafegFHMEFzdp9d2-23" target="bo-qxafegFHMEFzdp9d2-3">
          <mxGeometry relative="1" as="geometry" />
        </mxCell>
        <mxCell id="bo-qxafegFHMEFzdp9d2-23" value="" style="ellipse;fillColor=strokeColor;html=1;" vertex="1" parent="1">
          <mxGeometry x="820" y="100" width="30" height="30" as="geometry" />
        </mxCell>
      </root>
    </mxGraphModel>
  </diagram>
</mxfile>
